<svg width="24" height="24" viewBox="0 0 24 24" fill="none" xmlns="http://www.w3.org/2000/svg">
<path d="M8.6655 15.08C8.3145 15.4375 8.3145 16.0196 8.6655 16.3771L10.4835 18.2287C10.8345 18.5862 10.8345 19.1683 10.4835 19.5258C10.308 19.7046 10.0785 19.7963 9.849 19.7963C9.6195 19.7963 9.39 19.7046 9.2145 19.5258L7.3965 17.6742C6.3435 16.6017 6.3435 14.8554 7.3965 13.7829L9.2505 11.8946C9.6015 11.5371 10.173 11.5371 10.524 11.8946C10.875 12.2521 10.875 12.8342 10.524 13.1917L8.67 15.08H8.6655ZM14.754 11.8946C14.403 11.5371 13.8315 11.5371 13.4805 11.8946C13.1295 12.2521 13.1295 12.8342 13.4805 13.1917L15.3345 15.08C15.6855 15.4375 15.6855 16.0196 15.3345 16.3771L13.5165 18.2287C13.1655 18.5862 13.1655 19.1683 13.5165 19.5258C13.692 19.7046 13.9215 19.7963 14.151 19.7963C14.3805 19.7963 14.61 19.7046 14.7855 19.5258L16.6035 17.6742C17.6565 16.6017 17.6565 14.8554 16.6035 13.7829L14.7495 11.8946H14.754ZM21 10.6113V18.4167C21 20.9421 18.9795 23 16.5 23H7.5C5.0205 23 3 20.9421 3 18.4167V5.58333C3 3.05792 5.0205 1 7.5 1H11.5635C13.2465 1 14.826 1.66917 16.0185 2.87917L19.155 6.07375C20.343 7.28375 21 8.89708 21 10.6113ZM14.745 4.17625C14.457 3.88291 14.142 3.64 13.8 3.43834V7.41667C13.8 7.92083 14.205 8.33333 14.7 8.33333H18.606C18.408 7.985 18.1695 7.65958 17.8815 7.37083L14.745 4.17625ZM19.2 10.6113C19.2 10.46 19.191 10.3133 19.1775 10.1667H14.7C13.2105 10.1667 12 8.93375 12 7.41667V2.85624C11.856 2.84249 11.712 2.83333 11.5635 2.83333H7.5C6.0105 2.83333 4.8 4.06625 4.8 5.58333V18.4167C4.8 19.9338 6.0105 21.1667 7.5 21.1667H16.5C17.9895 21.1667 19.2 19.9338 19.2 18.4167V10.6113Z" fill="#F44862"/>
</svg>
